#!OML:ASF I:\Actors\actors\Patient Classification 1\Patient 1\Session 1\Subject1.ASF
:FULLY-SPECIFIED
:DEGREES
595
root 1.74095 17.5608 7.79623 8.25123 -0.36066 -8.79788
lowerback 8.71246 2.19161 3.05663
upperback -7.34328 3.44106 0.121615
thorax -12.7379 1.3689 -2.24974
lowerneck -11.7169 -1.08036 1.81994
upperneck 27.1786 -3.47679 5.45634
head 10.7555 -0.74894 1.21352
rclavicle 1.8487e-014 1.27222e-014
rhumerus 5.8864 37.7821 -70.9435
rradius 85.1769
rwrist 5.78743
rhand 8.99633 -20.9986
rfingers 7.12502
rthumb 34.1738 -47.7436
lclavicle 1.8487e-014 1.27222e-014
lhumerus -16.7422 -37.3948 104.276
lradius 78.3816
lwrist 25.3987
lhand -28.9899 -26.7143
lfingers 7.12502
lthumb -2.34198 3.25259
rfemur -10.4098 14.0507 17.9789
rtibia 17.0507
rfoot -12.6514 -17.9191
rtoes -2.99495
lfemur -0.974799 -22.1768 -17.2864
ltibia 1.48259
lfoot -9.4121 32.1807
ltoes 8.31784
596
root 1.72606 17.5626 7.77122 8.21728 0.0469887 -8.58451
lowerback 8.76006 2.26563 2.70804
upperback -7.34191 3.48964 0.0941629
thorax -12.78 1.42098 -2.09703
lowerneck -11.6195 -1.40787 1.51048
upperneck 26.8798 -3.95303 5.83214
head 10.651 -0.963913 1.33866
rclavicle 2.32081e-014 3.18055e-015
rhumerus 7.72048 38.7162 -69.2269
rradius 84.7631
rwrist 2.90782
rhand 11.4233 -20.9918
rfingers 7.12502
rthumb 36.475 -47.1902
lclavicle 2.32081e-014 3.18055e-015
lhumerus -15.7195 -38.3079 104.494
lradius 78.352
lwrist 26.2078
lhand -30.2435 -27.6633
lfingers 7.12502
lthumb -3.55258 2.28687
rfemur -11.0031 13.6517 17.7172
rtibia 17.7925
rfoot -12.8317 -17.6741
rtoes -3.176
lfemur -1.04201 -22.3955 -17.434
ltibia 1.33466
lfoot -9.17138 32.131
ltoes 8.25933
597
root 1.70672 17.5644 7.74777 8.18626 0.560034 -8.3742
lowerback 8.80081 2.29612 2.38734
upperback -7.34374 3.48099 0.0514564
thorax -12.8226 1.44252 -1.96546
lowerneck -11.5069 -1.72589 1.19396
upperneck 26.6311 -4.42948 6.2582
head 10.5682 -1.17337 1.48381
rclavicle -2.15184e-014 3.97569e-015
rhumerus 9.34624 39.4038 -67.6273
rradius 84.5346
rwrist 0.158069
rhand 13.8909 -21.1201
rfingers 7.12502
rthumb 38.8067 -46.6952
lclavicle -2.15184e-014 3.97569e-015
lhumerus -14.5209 -39.019 104.498
lradius 78.2225
lwrist 26.9512
lhand -31.4665 -28.0892
lfingers 7.12502
lthumb -4.7336 1.83795
rfemur -11.3918 13.4508 17.4817
rtibia 18.0641
rfoot -13.0301 -17.6466
rtoes -3.62553
lfemur -1.14944 -22.6443 -17.5464
ltibia 1.22454
lfoot -8.89221 32.0232
ltoes 8.00006
598
root 1.68367 17.5656 7.72623 8.13675 1.17116 -8.21845
lowerback 8.85008 2.27822 2.17815
upperback -7.34654 3.42148 -0.00480471
thorax -12.8669 1.429 -1.90155
lowerneck -11.3687 -2.03245 0.892927
upperneck 26.4269 -4.90186 6.71112
head 10.5019 -1.37625 1.63723
rclavicle 1.61016e-014 -2.54444e-014
rhumerus 10.7134 39.797 -66.241
rradius 84.4677
rwrist -2.14445
rhand 16.1417 -21.3426
rfingers 7.12502
rthumb 40.9252 -46.2827
lclavicle 1.61016e-014 -2.54444e-014
lhumerus -13.2021 -39.5454 104.278
lradius 77.9847
lwrist 27.5416
lhand -32.4817 -28.2704
lfingers 7.12502
lthumb -5.71385 1.63261
rfemur -11.5593 13.456 17.333
rtibia 17.8711
rfoot -13.2678 -17.8556
rtoes -4.10119
lfemur -1.27984 -22.9099 -17.573
ltibia 1.16877
lfoot -8.60517 31.8529
ltoes 7.52605
599
root 1.65723 17.5661 7.70685 8.0506 1.83717 -8.11857
lowerback 8.92245 2.22236 2.07334
upperback -7.34801 3.32523 -0.0694376
thorax -12.9191 1.38785 -1.89895
lowerneck -11.2188 -2.32617 0.598172
upperneck 26.2879 -5.36796 7.18695
head 10.4622 -1.57196 1.79964
rclavicle 1.35174e-014 -7.95139e-016
rhumerus 11.7943 39.8912 -65.1252
rradius 84.5167
rwrist -3.94119
rhand 17.9416 -21.6175
rfingers 7.12502
rthumb 42.6129 -45.9988
lclavicle 1.35174e-014 -7.95139e-016
lhumerus -11.8257 -39.9301 103.86
lradius 77.625
lwrist 27.7831
lhand -33.2304 -28.4635
lfingers 7.12502
lthumb -6.43664 1.41868
rfemur -11.5319 13.6564 17.2726
rtibia 17.3014
rfoot -13.559 -18.2863
rtoes -4.42739
lfemur -1.41031 -23.1753 -17.5243
ltibia 1.17742
lfoot -8.34525 31.6382
ltoes 6.87812
600
root 1.62794 17.5658 7.69031 7.9123 2.50089 -8.07913
lowerback 9.03101 2.14845 2.04895
upperback -7.34902 3.21803 -0.126638
thorax -12.99 1.33408 -1.9326
lowerneck -11.0732 -2.60863 0.29488
upperneck 26.2304 -5.82516 7.66872
head 10.4578 -1.76158 1.96806
rclavicle -6.31141e-015 1.19271e-014
rhumerus 12.5814 39.7189 -64.2864
rradius 84.6429
rwrist -5.34458
rhand 19.2173 -21.9621
rfingers 7.12502
rthumb 43.8053 -45.9172
lclavicle -6.31141e-015 1.19271e-014
lhumerus -10.4492 -40.2481 103.29
lradius 77.1368
lwrist 27.5213
lhand -33.7034 -28.7633
lfingers 7.12502
lthumb -6.89324 1.10442
rfemur -11.3487 14.0182 17.3093
rtibia 16.4829
rfoot -13.907 -18.8669
rtoes -4.52682
lfemur -1.50328 -23.4051 -17.4126
ltibia 1.24071
lfoot -8.1334 31.3913
ltoes 6.10473
601
root 1.596 17.5648 7.67752 7.72511 3.10001 -8.08254
lowerback 9.15958 2.08069 2.05428
upperback -7.34742 3.12559 -0.169519
thorax -13.0692 1.28521 -1.97074
lowerneck -10.9469 -2.87668 -0.00245827
upperneck 26.2596 -6.26673 8.12847
head 10.4917 -1.94285 2.13093
rclavicle -2.6339e-015 -9.54166e-015
rhumerus 13.1044 39.3393 -63.6916
rradius 84.7992
rwrist -6.54814
rhand 19.9738 -22.3918
rfingers 7.12502
rthumb 44.5106 -46.0816
lclavicle -2.6339e-015 -9.54166e-015
lhumerus -9.08409 -40.5897 102.594
lradius 76.5209
lwrist 26.7605
lhand -33.8756 -29.1392
lfingers 7.12502
lthumb -7.0595 0.723066
rfemur -11.0697 14.4991 17.4258
rtibia 15.5639
rfoot -14.2835 -19.4914
rtoes -4.46126
lfemur -1.53738 -23.5619 -17.2666
ltibia 1.34431
lfoot -7.98452 31.1191
ltoes 5.25986
602
root 1.56143 17.5633 7.66915 7.49887 3.59156 -8.10775
lowerback 9.2853 2.0332 2.03968
upperback -7.34212 3.05974 -0.191634
thorax -13.1435 1.25213 -1.97975
lowerneck -10.8496 -3.1293 -0.319961
upperneck 26.3709 -6.68879 8.57454
head 10.5647 -2.1152 2.29621
rclavicle -5.46658e-016 -3.18055e-014
rhumerus 13.4131 38.8345 -63.3
rradius 84.9256
rwrist -7.66773
rhand 20.3039 -22.883
rfingers 7.12502
rthumb 44.818 -46.4538
lclavicle -5.46658e-016 -3.18055e-014
lhumerus -7.72003 -41.0177 101.786
lradius 75.7941
lwrist 25.683
lhand -33.773 -29.533
lfingers 7.12502
lthumb -6.96043 0.332593
rfemur -10.7455 15.0467 17.6033
rtibia 14.6735
rfoot -14.6259 -20.0357
rtoes -4.36432
lfemur -1.50237 -23.624 -17.1115
ltibia 1.47455
lfoot -7.91465 30.8214
ltoes 4.41207
603
root 1.52346 17.5618 7.66591 7.27075 3.95422 -8.07502
lowerback 9.36563 2.01428 1.88852
upperback -7.34082 3.01194 -0.200257
thorax -13.201 1.24156 -1.89895
lowerneck -10.7719 -3.36259 -0.664082
upperneck 26.5513 -7.08332 9.00552
head 10.67 -2.27623 2.46565
rclavicle -3.3197e-014 -1.03368e-014
rhumerus 13.5553 38.2924 -63.0688
rradius 84.9807
rwrist -8.67673
rhand 20.3848 -23.3772
rfingers 7.12502
rthumb 44.8933 -46.9187
lclavicle -3.3197e-014 -1.03368e-014
lhumerus -6.35153 -41.5681 100.879
lradius 74.9914
lwrist 24.5762
lhand -33.5403 -29.8882
lfingers 7.12502
lthumb -6.73582 -0.0152999
rfemur -10.4388 15.627 17.7435
rtibia 13.9047
rfoot -14.8686 -20.3964
rtoes -4.28381
lfemur -1.42937 -23.5881 -17.0218
ltibia 1.62993
lfoot -7.93749 30.4908
ltoes 3.62733
604
root 1.4807 17.5617 7.6686 7.09623 4.19998 -7.88039
lowerback 9.33248 2.02262 1.51097
upperback -7.34825 2.9593 -0.244561
thorax -13.207 1.24897 -1.72447
lowerneck -10.696 -3.57313 -1.00231
upperneck 26.7614 -7.44933 9.4246
head 10.7883 -2.42385 2.63473
rclavicle 1.22253e-014 -2.06736e-014
rhumerus 13.5714 37.7726 -62.984
rradius 84.9531
rwrist -9.47187
rhand 20.2962 -23.8026
rfingers 7.12502
rthumb 44.8109 -47.3763
lclavicle 1.22253e-014 -2.06736e-014
lhumerus -4.96621 -42.2894 99.8417
lradius 74.15
lwrist 23.7167
lhand -33.392 -30.2649
lfingers 7.12502
lthumb -6.59269 -0.387516
rfemur -10.2175 16.222 17.7119
rtibia 13.3177
rfoot -14.9699 -20.5416
rtoes -4.15176
lfemur -1.38064 -23.4682 -17.0865
ltibia 1.81616
lfoot -8.05478 30.1104
ltoes 2.91941
605
root 1.43311 17.5628 7.67767 6.98531 4.39325 -7.55766
lowerback 9.1686 2.0371 0.964407
upperback -7.36715 2.88414 -0.319423
thorax -13.1521 1.26096 -1.47871
lowerneck -10.612 -3.76273 -1.31953
upperneck 26.9847 -7.78535 9.81269
head 10.9095 -2.55901 2.79402
rclavicle -4.72114e-015 -1.98785e-014
rhumerus 13.4983 37.3301 -62.9905
rradius 84.8538
rwrist -9.83584
rhand 20.1283 -24.0148
rfingers 7.12502
rthumb 44.6546 -47.6492
lclavicle -4.72114e-015 -1.98785e-014
lhumerus -3.58529 -43.1695 98.6985
lradius 73.3028
lwrist 23.2171
lhand -33.4884 -30.8708
lfingers 7.12502
lthumb -6.68571 -0.996302
rfemur -10.078 16.7871 17.551
rtibia 12.9322
rfoot -14.945 -20.5141
rtoes -3.8426
lfemur -1.37182 -23.2783 -17.2543
ltibia 2.01818
lfoot -8.24718 29.6396
ltoes 2.2414
606
root 1.38113 17.564 7.69263 6.92183 4.59959 -7.18634
lowerback 8.89701 2.03257 0.360843
upperback -7.39543 2.77502 -0.40595
thorax -13.0438 1.26216 -1.20273
lowerneck -10.518 -3.93023 -1.60965
upperneck 27.2137 -8.08492 10.1524
head 11.0281 -2.68057 2.9368
rclavicle 6.60959e-015 -1.82882e-014
rhumerus 13.3731 37.0154 -63.0264
rradius 84.7248
rwrist -9.65685
rhand 19.8937 -23.9952
rfingers 7.12502
rthumb 44.4361 -47.7135
lclavicle 6.60959e-015 -1.82882e-014
lhumerus -2.24647 -44.1515 97.4887
lradius 72.4824
lwrist 22.9509
lhand -33.9127 -31.8488
lfingers 7.12502
lthumb -7.09534 -1.98776
rfemur -9.98397 17.2786 17.3607
rtibia 12.7349
rfoot -14.8588 -20.4136
rtoes -3.27765
lfemur -1.38807 -23.0493 -17.4363
ltibia 2.20902
lfoot -8.47647 29.0673
ltoes 1.55026
607
root 1.32487 17.565 7.71204 6.89333 4.86229 -6.80344
lowerback 8.55943 1.99372 -0.243772
upperback -7.43154 2.62342 -0.492418
thorax -12.9032 1.24319 -0.915796
lowerneck -10.413 -4.07306 -1.87767
upperneck 27.4405 -8.34191 10.4445
head 11.1397 -2.78654 3.06472
rclavicle 5.22307e-014 -2.62396e-014
rhumerus 13.2307 36.8658 -63.0369
rradius 84.6103
rwrist -9.08975
rhand 19.5003 -23.8087
rfingers 7.12502
rthumb 44.0693 -47.6657
lclavicle 5.22307e-014 -2.62396e-014
lhumerus -0.999545 -45.1471 96.2734
lradius 71.7243
lwrist 22.6552
lhand -34.7039 -33.2105
lfingers 7.12502
lthumb -7.85896 -3.37656
rfemur -9.89914 17.6642 17.1855
rtibia 12.6744
rfoot -14.7796 -20.3579
rtoes -2.53757
lfemur -1.41356 -22.852 -17.5995
ltibia 2.36391
lfoot -8.6977 28.4463
ltoes 0.830814
608
root 1.26512 17.5653 7.7343 6.8789 5.21632 -6.46344
lowerback 8.21846 1.91338 -0.771753
upperback -7.47706 2.43331 -0.562513
thorax -12.7671 1.19906 -0.64773
lowerneck -10.3088 -4.20047 -2.15717
upperneck 27.666 -8.56672 10.7045
head 11.2493 -2.88297 3.18775
rclavicle 8.05078e-015 -1.74931e-014
rhumerus 13.0798 36.8761 -62.9973
rradius 84.5546
rwrist -8.40344
rhand 18.9074 -23.5584
rfingers 7.12502
rthumb 43.5159 -47.6195
lclavicle 8.05078e-015 -1.74931e-014
lhumerus 0.0785849 -46.061 95.1436
lradius 71.0723
lwrist 22.128
lhand -35.8011 -34.9309
lfingers 7.12502
lthumb -8.91785 -5.1394
rfemur -9.76739 17.917 17.092
rtibia 12.6589
rfoot -14.7579 -20.4399
rtoes -1.81315
lfemur -1.41881 -22.763 -17.7011
ltibia 2.4532
lfoot -8.87578 27.8473
ltoes 0.106769
